<svg xmlns="http://www.w3.org/2000/svg" width="313.74" height="239.84" viewBox="0 0 313.74 239.84">
  <g id="グループ_4" data-name="グループ 4" transform="translate(-564 -270)">
    <path id="パス_2" data-name="パス 2" d="M-62.8-160h1a4.29,4.29,0,0,1,1.1.2q.7.2,1.5.4,2.6.8,5,1.5a34.325,34.325,0,0,1,4.6,1.7q2.4,1,4.8,1.8a13.161,13.161,0,0,0,4,.8,4.16,4.16,0,0,0,1.6-.2,2.664,2.664,0,0,1,.9-.6q.5-.2.9-.4a1.535,1.535,0,0,1,.6-.2h.4q.2,0,.6.4.2.4.4.9a3.55,3.55,0,0,1,.2,1.3v29a25.961,25.961,0,0,1-.2,3.7,6.962,6.962,0,0,1-.4,1.7,1.346,1.346,0,0,1-1.2.6q-.8,0-1-.4a2.461,2.461,0,0,1-.4-1q-.2-.6-.5-1.6t-.7-3a47.835,47.835,0,0,0-7.9-18.7,45.386,45.386,0,0,0-13.3-12.5,14.166,14.166,0,0,1-3-2A9.7,9.7,0,0,1-65-158q-.4-.8,0-1.2A2.6,2.6,0,0,1-62.8-160Zm-33,1a2.147,2.147,0,0,1,2,1,1.42,1.42,0,0,1-.2,1.2q-.4.6-1.1,1.6a14.581,14.581,0,0,1-2.3,2.4q-5.8,6.4-5.8,17,0,11,6.1,18.2a60.472,60.472,0,0,0,15.3,12.7,200.016,200.016,0,0,0,20,10.4,126.294,126.294,0,0,1,20,11.3A60.3,60.3,0,0,1-26.5-68q6.1,8.8,6.1,22.2A45.3,45.3,0,0,1-27.8-21Q-35.2-9.4-49.4-3.2a6.286,6.286,0,0,1-2,.8A13.837,13.837,0,0,0-53-2a5.876,5.876,0,0,1-1.4.2,2.34,2.34,0,0,1-2-.8,2.257,2.257,0,0,1-.2-1.6,3.659,3.659,0,0,1,.8-1.5q.6-.7,1.3-1.4l1.1-1.1q6.6-6.8,6.6-18,0-10.8-5.9-18A58.347,58.347,0,0,0-67.6-56.9,194.689,194.689,0,0,0-86.9-67.2a127.441,127.441,0,0,1-19.3-11.1,57.925,57.925,0,0,1-14.9-15q-5.9-8.7-5.9-21.9a48.55,48.55,0,0,1,1.7-12.7,47.469,47.469,0,0,1,5.1-12,46.518,46.518,0,0,1,8.5-10.4A43.974,43.974,0,0,1-100-158,12.426,12.426,0,0,1-95.8-159ZM-126-50a1.944,1.944,0,0,1,1,.4q1,.6,1.6,3.4a78.035,78.035,0,0,0,7,19.9A50.491,50.491,0,0,0-103-9.6,15.656,15.656,0,0,1-99-5a2.257,2.257,0,0,1,.2,1.6Q-99.6-2-102.4-2h-1.2a7.287,7.287,0,0,1-1.2-.1q-.6-.1-1.4-.3-1.2-.4-2.5-.9t-2.5-.9q-3-1-5.6-1.8a15.443,15.443,0,0,0-4.4-.8,3.979,3.979,0,0,0-2.4.6,1.97,1.97,0,0,1-.7.5,5.486,5.486,0,0,0-.7.3,1.775,1.775,0,0,1-.8.2h-.6a1.152,1.152,0,0,1-.8-.4,2.165,2.165,0,0,1-.6-2V-46.8a3.9,3.9,0,0,1,.8-2.8A1.357,1.357,0,0,1-126-50ZM65-160h1a4.29,4.29,0,0,1,1.1.2q.7.2,1.5.4,2.6.8,5,1.5a34.326,34.326,0,0,1,4.6,1.7q2.4,1,4.8,1.8a13.161,13.161,0,0,0,4,.8,4.16,4.16,0,0,0,1.6-.2,2.664,2.664,0,0,1,.9-.6q.5-.2.9-.4a1.535,1.535,0,0,1,.6-.2h.4q.2,0,.6.4.2.4.4.9a3.55,3.55,0,0,1,.2,1.3v29a25.961,25.961,0,0,1-.2,3.7A6.962,6.962,0,0,1,92-118a1.346,1.346,0,0,1-1.2.6q-.8,0-1-.4a2.461,2.461,0,0,1-.4-1q-.2-.6-.5-1.6t-.7-3a47.835,47.835,0,0,0-7.9-18.7A45.385,45.385,0,0,0,67-154.6a14.165,14.165,0,0,1-3-2,9.7,9.7,0,0,1-1.2-1.4q-.4-.8,0-1.2A2.6,2.6,0,0,1,65-160Zm-33,1a2.147,2.147,0,0,1,2,1,1.42,1.42,0,0,1-.2,1.2q-.4.6-1.1,1.6a14.581,14.581,0,0,1-2.3,2.4q-5.8,6.4-5.8,17,0,11,6.1,18.2A60.471,60.471,0,0,0,46-104.9,200.017,200.017,0,0,0,66-94.5,126.294,126.294,0,0,1,86-83.2,60.3,60.3,0,0,1,101.3-68q6.1,8.8,6.1,22.2A45.3,45.3,0,0,1,100-21Q92.6-9.4,78.4-3.2a6.286,6.286,0,0,1-2,.8,13.837,13.837,0,0,0-1.6.4,5.876,5.876,0,0,1-1.4.2,2.34,2.34,0,0,1-2-.8,2.257,2.257,0,0,1-.2-1.6A3.659,3.659,0,0,1,72-5.7q.6-.7,1.3-1.4l1.1-1.1Q81-15,81-26.2q0-10.8-5.9-18A58.347,58.347,0,0,0,60.2-56.9,194.688,194.688,0,0,0,40.9-67.2,127.441,127.441,0,0,1,21.6-78.3a57.925,57.925,0,0,1-14.9-15Q.8-102,.8-115.2a48.549,48.549,0,0,1,1.7-12.7,47.469,47.469,0,0,1,5.1-12,46.518,46.518,0,0,1,8.5-10.4A43.974,43.974,0,0,1,27.8-158,12.426,12.426,0,0,1,32-159ZM1.8-50a1.944,1.944,0,0,1,1,.4q1,.6,1.6,3.4a78.035,78.035,0,0,0,7,19.9A50.491,50.491,0,0,0,24.8-9.6a15.656,15.656,0,0,1,4,4.6A2.257,2.257,0,0,1,29-3.4Q28.2-2,25.4-2H24.2A7.288,7.288,0,0,1,23-2.1q-.6-.1-1.4-.3-1.2-.4-2.5-.9t-2.5-.9q-3-1-5.6-1.8a15.443,15.443,0,0,0-4.4-.8,3.979,3.979,0,0,0-2.4.6,1.97,1.97,0,0,1-.7.5,5.487,5.487,0,0,0-.7.3,1.775,1.775,0,0,1-.8.2H1.4a1.152,1.152,0,0,1-.8-.4,2.165,2.165,0,0,1-.6-2V-46.8a3.9,3.9,0,0,1,.8-2.8A1.357,1.357,0,0,1,1.8-50Z" transform="translate(730.84 430)" fill="#fff"/>
    <path id="パス_3" data-name="パス 3" d="M-116.88-17.52l-.3,9.72a18.061,18.061,0,0,1-3.81,4.41A17.517,17.517,0,0,1-126.54-.3a22.567,22.567,0,0,1-7.5,1.14,25.18,25.18,0,0,1-11.67-2.73,19.29,19.29,0,0,1-7.89-7.56,22.848,22.848,0,0,1-2.82-11.61,22.793,22.793,0,0,1,2.79-11.49,19.29,19.29,0,0,1,7.86-7.59,25.252,25.252,0,0,1,12.03-2.7,28.283,28.283,0,0,1,8.22,1.11A25.8,25.8,0,0,1-119.28-39l.84,9.06h-.54a13.579,13.579,0,0,0-5.37-8.19,15.889,15.889,0,0,0-9.15-2.67,15.874,15.874,0,0,0-8.88,2.43,15.926,15.926,0,0,0-5.76,6.84,24.6,24.6,0,0,0-2.04,10.41,24.965,24.965,0,0,0,2.01,10.38,16.347,16.347,0,0,0,5.64,6.93,15.335,15.335,0,0,0,8.49,2.61,19.016,19.016,0,0,0,7.86-1.56,13.216,13.216,0,0,0,5.76-5.13,23.446,23.446,0,0,0,3.06-9.63ZM-101.04-42h8.22a17.056,17.056,0,0,1,5.04.72,11.062,11.062,0,0,1,3.99,2.13,10.027,10.027,0,0,1,2.61,3.51,11.736,11.736,0,0,1,.96,4.92,12.22,12.22,0,0,1-1.26,5.37,11.5,11.5,0,0,1-3.51,4.29,9.259,9.259,0,0,1-5.31,1.8,7.135,7.135,0,0,1,2.64,1.86,26.41,26.41,0,0,1,2.28,2.7,11.1,11.1,0,0,0,.75,1.14q.75,1.08,1.89,2.67t2.31,3.15q1.17,1.56,2.07,2.58a19.667,19.667,0,0,0,2.37,2.43,9.775,9.775,0,0,0,2.52,1.56,7.72,7.72,0,0,0,3.03.57V0h-4.2a15.915,15.915,0,0,1-5.1-.75,12.548,12.548,0,0,1-3.84-2.04,15.8,15.8,0,0,1-2.76-2.79q-.24-.42-.99-1.56t-1.68-2.61q-.93-1.47-1.83-2.91t-1.56-2.49q-.66-1.05-.84-1.35a13.842,13.842,0,0,0-2.28-2.79,4.24,4.24,0,0,0-2.76-1.23v-.6q.06,0,.87.03t1.89-.03a14.959,14.959,0,0,0,3.33-.54,7.616,7.616,0,0,0,3.24-1.86,8.442,8.442,0,0,0,2.19-4.08,8.144,8.144,0,0,0,.27-1.5,11.478,11.478,0,0,0,.03-1.86,9.735,9.735,0,0,0-2.07-6.45,6.994,6.994,0,0,0-5.25-2.43,27.022,27.022,0,0,0-2.88-.09q-1.5.03-2.58.03h-1.2a4.777,4.777,0,0,0-.15-.57l-.3-1.02Zm.78,0V0h-5.58V-42Zm-5.4,37.62V0h-4.8V-.6h.78a3.64,3.64,0,0,0,2.67-1.11,3.862,3.862,0,0,0,1.17-2.67Zm0-33.24h-.18a3.862,3.862,0,0,0-1.17-2.67,3.64,3.64,0,0,0-2.67-1.11h-.78V-42h4.8Zm5.22,33.24h.18a3.593,3.593,0,0,0,1.14,2.67A3.74,3.74,0,0,0-96.42-.6h.72V0h-4.74ZM-59.76-42V0h-5.58V-42ZM-43.68-2.1-43.2,0H-59.94V-2.1Zm-2.46-19.62v2.04h-13.8v-2.04ZM-43.44-42v2.1h-16.5V-42Zm3.66,31.44L-43.02,0H-53.58l2.16-2.1A11.611,11.611,0,0,0-46.2-3.15a9.41,9.41,0,0,0,3.48-2.97,19.4,19.4,0,0,0,2.34-4.44Zm-6.36-9.24v4.56h-.6v-.78a3.627,3.627,0,0,0-1.02-2.58,3.4,3.4,0,0,0-2.58-1.08v-.12Zm0-6.36v4.56h-4.2v-.12a3.6,3.6,0,0,0,2.58-1.14,3.627,3.627,0,0,0,1.02-2.58v-.72Zm2.7-13.92v5.52h-.6v-.96a4.291,4.291,0,0,0-1.23-3.12,4.416,4.416,0,0,0-3.15-1.32v-.12Zm0-3v1.74L-50.76-42a23,23,0,0,0,2.79-.18q1.47-.18,2.73-.42A9.052,9.052,0,0,0-43.44-43.08ZM-65.16-4.38V0h-4.8V-.6h.78a3.64,3.64,0,0,0,2.67-1.11,3.862,3.862,0,0,0,1.17-2.67Zm0-33.24h-.18a3.593,3.593,0,0,0-1.14-2.67,3.74,3.74,0,0,0-2.7-1.11h-.72l-.06-.6h4.8Zm49.08-5.34L2.34-.36H-4.68L-18.06-35.28ZM-28.98-4.38a3.053,3.053,0,0,0-.12,2.04,2.485,2.485,0,0,0,.99,1.29A2.553,2.553,0,0,0-26.7-.6h.54V0h-12.3V-.6h.54a5.593,5.593,0,0,0,2.85-.87,6.4,6.4,0,0,0,2.43-2.91Zm12.9-38.58.48,5.22L-30.6-.18h-3.9l15.42-36.06q.06-.12.45-.93t.84-1.95q.45-1.14.81-2.22a5.713,5.713,0,0,0,.36-1.62Zm7.74,27.3v2.04H-26.7v-2.04Zm2.1,11.28H.54A6.4,6.4,0,0,0,2.97-1.47,5.593,5.593,0,0,0,5.82-.6H6.3V0H-9.06V-.6h.54a2.759,2.759,0,0,0,2.1-.99A2.52,2.52,0,0,0-6.24-4.38ZM22.62-41.82V0H17.04V-41.82Zm15.18-.24v2.04H1.86v-2.04Zm0,1.86v5.58l-.6-.06v-.9a4.265,4.265,0,0,0-1.23-3.15,4.475,4.475,0,0,0-3.15-1.29v-.18Zm0-2.94v1.74l-7.32-.66a23,23,0,0,0,2.79-.18q1.47-.18,2.73-.42A9.052,9.052,0,0,0,37.8-43.14ZM17.22-4.38V0h-4.8V-.6h.78a3.64,3.64,0,0,0,2.67-1.11,3.862,3.862,0,0,0,1.17-2.67Zm5.22,0h.18a3.862,3.862,0,0,0,1.17,2.67A3.64,3.64,0,0,0,26.46-.6h.78V0h-4.8ZM6.84-40.2v.18a4.475,4.475,0,0,0-3.15,1.29,4.265,4.265,0,0,0-1.23,3.15v.9l-.6.06V-40.2ZM1.86-43.14a10.927,10.927,0,0,0,1.83.48q1.23.24,2.73.42a23.3,23.3,0,0,0,2.76.18l-7.32.66ZM52.26-42V0H46.68V-42ZM46.86-4.38V0h-4.8V-.6h.78a3.64,3.64,0,0,0,2.67-1.11,3.862,3.862,0,0,0,1.17-2.67Zm0-33.24h-.18a3.862,3.862,0,0,0-1.17-2.67,3.64,3.64,0,0,0-2.67-1.11h-.78V-42h4.8ZM52.08-4.38h.18a3.862,3.862,0,0,0,1.17,2.67A3.64,3.64,0,0,0,56.1-.6h.78V0h-4.8Zm0-33.24V-42h4.8v.6H56.1a3.64,3.64,0,0,0-2.67,1.11,3.862,3.862,0,0,0-1.17,2.67Zm32.76-5.22a24.36,24.36,0,0,1,11.73,2.7,19.33,19.33,0,0,1,7.8,7.62A22.96,22.96,0,0,1,107.16-21a22.96,22.96,0,0,1-2.79,11.52,19.33,19.33,0,0,1-7.8,7.62A24.36,24.36,0,0,1,84.84.84a24.1,24.1,0,0,1-11.61-2.7,19.33,19.33,0,0,1-7.8-7.62A22.96,22.96,0,0,1,62.64-21a22.96,22.96,0,0,1,2.79-11.52,19.33,19.33,0,0,1,7.8-7.62A24.1,24.1,0,0,1,84.84-42.84Zm0,41.64a14.349,14.349,0,0,0,8.4-2.46,16.193,16.193,0,0,0,5.52-6.9A25.455,25.455,0,0,0,100.74-21a25.455,25.455,0,0,0-1.98-10.44,16.193,16.193,0,0,0-5.52-6.9,14.349,14.349,0,0,0-8.4-2.46,14.284,14.284,0,0,0-8.31,2.46,16.1,16.1,0,0,0-5.55,6.9A25.455,25.455,0,0,0,69-21a25.455,25.455,0,0,0,1.98,10.44,16.1,16.1,0,0,0,5.55,6.9A14.284,14.284,0,0,0,84.84-1.2Zm31.14-41.7,36,36.96.6,6.78-36-36.9Zm.18,38.64V0h-4.98V-.6h1.14a3.521,3.521,0,0,0,2.58-1.08,3.521,3.521,0,0,0,1.08-2.58Zm4.5,0a3.521,3.521,0,0,0,1.08,2.58A3.521,3.521,0,0,0,124.32-.6h1.14V0h-4.98V-4.26ZM115.98-42.9l4.62,5.28L120.66,0h-4.68V-35.4a39.787,39.787,0,0,0-.3-5.34l-.3-2.16Zm36.54.9V-6.84q0,2.04.15,3.81t.3,2.82l.15,1.05h-.54L147.9-4.5V-42Zm4.8,0v.6h-1.08a3.572,3.572,0,0,0-2.58,1.05,3.7,3.7,0,0,0-1.14,2.61h-.18V-42Zm-14.28,0h4.98v4.26h-.12a3.76,3.76,0,0,0-1.11-2.61,3.543,3.543,0,0,0-2.61-1.05h-1.14Z" transform="translate(720.42 509)" fill="#fff"/>
  </g>
</svg>
